<svg xmlns="http://www.w3.org/2000/svg" xmlns:xlink="http://www.w3.org/1999/xlink" width="160" height="160" viewBox="0 0 160 160">
    <defs>
        <path id="a" d="M112 20.686c-.513 1.472-9.088 10.446-10.08 11.619C89.504 44.229 83.682 48.902 78.068 47.83c-2.16-.402-3.995-1.742-5.182-3.752-5.398-9.244 3.778-24.116 10.364-34.567-5.614 4.422-12.74 11.389-19.433 17.82-6.477 6.297-12.631 12.192-17.274 15.81-.54.535-2.483 2.01-3.994.133-1.727-2.01-.54-4.287 3.239-11.522 2.159-4.153 7.233-13.934 6.91-16.747-4.643-2.144-28.567 25.8-35.908 34.509l-2.267 2.813c-.54.536-1.512 1.742-2.7 1.742-.431 0-.971-.134-1.403-.67-1.835-1.876 3.411-8.249 9.673-20.709 3.131-6.03 7.126-13.934 9.177-19.293-4.642 2.947-12.632 8.364-21.803 16.164-1.113.787-5.681 4.506-7.467 5.97 1.269-2.626 4.45-6.642 5.91-8.2C21.306 10.923 30.781 4.956 33.588 7.5c.432.269 1.728 1.742.972 4.422-1.188 4.421-9.005 18.536-12.784 26.173C35.056 22.822 49.35 6.698 55.18 10.449c.972.67 1.62 1.608 1.836 3.082.755 4.287-2.268 10.986-6.91 19.963 3.347-3.082 7.126-6.7 11.012-10.45C71.482 12.993 82.17 2.543 88.432.266c1.836-.804 2.807.402 3.131 1.072 1.188 2.277 0 4.153-3.995 10.316-4.75 7.369-14.682 22.91-11.011 29.208.431.938 1.187 1.34 2.05 1.474 3.024.67 9.699.488 23.626-12.776.996-.787 8.511-8.332 9.767-8.875zM4.8 72.292c.663-.069 1.089-.22 1.277-.456.188-.236.282-.782.282-1.64v-6.604c0-.587-.091-.97-.274-1.147-.183-.177-.598-.281-1.246-.313v-.302h3.173l3.713 8.2 3.55-8.2h3.196v.302c-.596.042-.98.152-1.152.33-.172.177-.259.554-.259 1.13v7.232c0 .592.087.972.259 1.139.172.166.556.276 1.152.329v.294h-4.497v-.294c.647-.053 1.05-.17 1.21-.353.16-.183.24-.618.24-1.306V63.33l-4.106 9.256h-.22L7.065 63.71v6.485c0 .89.128 1.469.384 1.739.167.174.54.293 1.12.357v.294H4.8v-.294zm22.343.294v-.294c.413-.048.722-.206.928-.476.207-.27.56-1.003 1.062-2.199l3.345-7.977h.313l3.996 9.215c.266.614.479.994.638 1.14.16.145.427.244.803.297v.294h-4.081v-.294c.47-.042.773-.094.908-.155.136-.06.204-.21.204-.448 0-.08-.026-.22-.078-.421a4.617 4.617 0 0 0-.22-.635l-.665-1.564h-4.2a73.778 73.778 0 0 0-.748 1.949c-.08.235-.121.422-.121.56 0 .275.11.465.329.571.136.064.392.111.768.143v.294h-3.181zm6.925-4.176l-1.856-4.476-1.834 4.476h3.69zm13.483.905c.271.73.59 1.313.956 1.747.637.756 1.428 1.135 2.373 1.135.512 0 .955-.164 1.328-.492.374-.328.56-.786.56-1.374 0-.529-.188-.99-.564-1.38-.245-.25-.762-.623-1.55-1.12l-1.372-.865a4.917 4.917 0 0 1-.987-.802c-.454-.513-.681-1.08-.681-1.699 0-.82.269-1.502.806-2.047.538-.545 1.251-.818 2.14-.818.365 0 .805.091 1.32.274.514.182.807.274.88.274.2 0 .336-.048.412-.143.076-.095.134-.23.176-.405h.33l.352 3.46h-.384c-.261-1.042-.68-1.77-1.258-2.182-.577-.413-1.147-.62-1.711-.62a1.78 1.78 0 0 0-1.148.394c-.326.262-.49.625-.49 1.091 0 .418.126.775.376 1.072.251.301.64.616 1.168.944l1.41.881c.882.55 1.504 1.056 1.864 1.516.356.466.533 1.016.533 1.652 0 .851-.317 1.563-.952 2.135-.634.571-1.445.857-2.432.857a4.674 4.674 0 0 1-1.555-.286c-.54-.19-.85-.286-.929-.286-.188 0-.314.059-.38.175-.065.117-.108.24-.129.373h-.352l-.478-3.46h.368zm16.945 0c.272.73.59 1.313.956 1.747.637.756 1.428 1.135 2.374 1.135.511 0 .954-.164 1.328-.492.373-.328.56-.786.56-1.374 0-.529-.188-.99-.564-1.38-.246-.25-.763-.623-1.552-1.12l-1.37-.865a4.917 4.917 0 0 1-.988-.802c-.454-.513-.681-1.08-.681-1.699 0-.82.269-1.502.807-2.047.538-.545 1.25-.818 2.138-.818.366 0 .806.091 1.32.274.515.182.809.274.882.274.198 0 .335-.048.411-.143.076-.095.135-.23.176-.405h.33l.352 3.46h-.384c-.261-1.042-.68-1.77-1.257-2.182-.577-.413-1.148-.62-1.712-.62a1.78 1.78 0 0 0-1.148.394c-.326.262-.49.625-.49 1.091 0 .418.126.775.377 1.072.25.301.64.616 1.167.944l1.41.881c.883.55 1.504 1.056 1.865 1.516.355.466.532 1.016.532 1.652 0 .851-.317 1.563-.952 2.135-.634.571-1.445.857-2.432.857a4.674 4.674 0 0 1-1.555-.286c-.54-.19-.85-.286-.928-.286-.188 0-.315.059-.38.175-.066.117-.109.24-.13.373h-.352l-.478-3.46h.368zm16.17 2.977c.61-.058.992-.181 1.144-.37.151-.187.227-.617.227-1.289v-7.04c0-.567-.085-.94-.255-1.12-.17-.18-.542-.294-1.116-.341v-.302h4.23c1.358 0 2.397.267 3.118.802.72.534 1.081 1.238 1.081 2.111 0 1.106-.4 1.908-1.198 2.405-.8.498-1.8.747-3 .747-.173 0-.394-.004-.663-.012a22.398 22.398 0 0 0-.6-.012v2.953c0 .613.094 1 .279 1.158.185.16.6.262 1.242.31v.294h-4.49v-.294zm6.682-7.509c0-.995-.423-1.677-1.269-2.048-.454-.201-1.029-.302-1.723-.302-.33 0-.532.034-.607.1-.076.066-.114.213-.114.44v4.239c.287.026.475.042.564.048.089.005.175.007.259.007.736 0 1.316-.105 1.739-.317.767-.386 1.151-1.109 1.151-2.167zm8.767 7.803v-.294c.412-.048.722-.206.928-.476.206-.27.56-1.003 1.062-2.199l3.345-7.977h.313l3.996 9.215c.266.614.479.994.638 1.14.16.145.427.244.803.297v.294h-4.082v-.294c.47-.042.773-.094.91-.155.135-.06.203-.21.203-.448 0-.08-.026-.22-.078-.421a4.617 4.617 0 0 0-.22-.635l-.666-1.564h-4.199a73.778 73.778 0 0 0-.748 1.949c-.08.235-.121.422-.121.56 0 .275.11.465.329.571.135.064.391.111.767.143v.294h-3.18zm6.925-4.176l-1.857-4.476-1.833 4.476h3.69z"/>
    </defs>
    <g fill="none" fill-rule="evenodd">
        <path fill="#FFF" d="M0 0h160v160H0z"/>
        <g transform="translate(24 44)">
            <mask id="b" fill="#fff">
                <use xlink:href="#a"/>
            </mask>
            <use fill="#FF513F" xlink:href="#a"/>
            <g fill="#FF513F" mask="url(#b)">
                <path d="M-24-44h160v160H-24z"/>
            </g>
        </g>
    </g>
</svg>
