<svg xmlns="http://www.w3.org/2000/svg" xmlns:xlink="http://www.w3.org/1999/xlink" width="24" height="24" viewBox="0 0 24 24">
    <defs>
        <path id="a" d="M12 0a2.5 2.5 0 0 1 2.494 2.326c.578.16 1.02.303 1.332.432.317.131.732.344 1.25.638a2.5 2.5 0 0 1 3.527 3.528c.304.535.521.963.655 1.288.124.304.262.733.416 1.294a2.5 2.5 0 0 1 0 4.988 12 12 0 0 1-.409 1.275c-.134.33-.354.764-.662 1.307a2.5 2.5 0 0 1-3.526 3.528c-.503.286-.905.493-1.211.621-.32.134-.776.283-1.372.448a2.5 2.5 0 0 1-4.988.001 12.049 12.049 0 0 1-1.31-.423 12.04 12.04 0 0 1-1.272-.647 2.5 2.5 0 0 1-3.528-3.527 11.908 11.908 0 0 1-.603-1.168c-.14-.33-.294-.8-.466-1.415a2.5 2.5 0 0 1 0-4.988c.16-.58.304-1.025.434-1.338.13-.315.342-.728.635-1.245a2.5 2.5 0 0 1 3.527-3.527c.487-.278.877-.48 1.175-.606.327-.139.795-.292 1.408-.463A2.5 2.5 0 0 1 12 0zm-1.5 2.5c0 .35-.234.656-.571.748-.653.177-1.135.333-1.44.463-.282.12-.687.331-1.21.634a.775.775 0 0 1-.936-.123 1.5 1.5 0 1 0-2.121 2.121.775.775 0 0 1 .123.935c-.317.55-.538.977-.66 1.274-.123.293-.27.754-.437 1.376a.775.775 0 0 1-.748.572 1.5 1.5 0 0 0 0 3c.35 0 .656.234.748.571.178.655.335 1.14.465 1.446.12.28.33.684.631 1.204a.775.775 0 0 1-.122.936 1.5 1.5 0 0 0 2.121 2.121.775.775 0 0 1 .935-.124c.562.323.997.548 1.3.672.287.119.74.262 1.35.426a.774.774 0 0 1 .572.748 1.5 1.5 0 0 0 3 0c0-.35.234-.656.572-.748.636-.172 1.108-.323 1.407-.449.29-.121.705-.338 1.242-.648a.775.775 0 0 1 .936.123 1.5 1.5 0 0 0 2.121-2.121.776.776 0 0 1-.124-.935c.33-.575.559-1.02.685-1.33.115-.282.254-.724.413-1.319a.774.774 0 0 1 .748-.573 1.5 1.5 0 0 0 0-3 .774.774 0 0 1-.748-.573c-.162-.603-.303-1.05-.42-1.336-.125-.305-.352-.745-.678-1.313a.776.776 0 0 1 .124-.935 1.5 1.5 0 0 0-2.121-2.121.775.775 0 0 1-.935.123c-.553-.318-.98-.54-1.278-.663-.293-.121-.752-.267-1.371-.434A.774.774 0 0 1 13.5 2.5a1.5 1.5 0 0 0-3 0zM12 18a6 6 0 1 1 0-12 6 6 0 0 1 0 12zm0-1a5 5 0 1 0 0-10 5 5 0 0 0 0 10z"/>
    </defs>
    <g fill="none" fill-rule="evenodd">
        <mask id="b" fill="#fff">
            <use xlink:href="#a"/>
        </mask>
        <use fill="#292F48" fill-rule="nonzero" xlink:href="#a"/>
        <g fill="#292F48" mask="url(#b)">
            <path d="M0 0h24v24H0z"/>
        </g>
    </g>
</svg>
