<svg xmlns="http://www.w3.org/2000/svg" xmlns:xlink="http://www.w3.org/1999/xlink" width="24" height="24" viewBox="0 0 24 24">
    <defs>
        <path id="a" d="M11.75 21.462a.512.512 0 0 1 .011 1.023c-.175.002-.35.003-.528.003-3.408 0-6.276-.362-8.608-1.09a2.047 2.047 0 0 1-1.408-2.289l.431-2.595a3.581 3.581 0 0 1 3.224-2.98 73.965 73.965 0 0 1 6.904-.253.512.512 0 0 1-.006 1.023 72.951 72.951 0 0 0-6.81.249 2.558 2.558 0 0 0-2.302 2.128l-.432 2.596c-.084.504.217.992.705 1.144 2.222.695 4.99 1.044 8.302 1.044.173 0 .346 0 .517-.003zM7.14 6.116a4.093 4.093 0 1 0 8.185.001 4.093 4.093 0 0 0-8.185 0zm-1.024 0a5.116 5.116 0 1 1 10.232 0 5.116 5.116 0 0 1-10.232 0zm16.874 9.11a.514.514 0 0 1-.001.207c-.027.419-.201.83-.521 1.15l-1.955 1.15a.512.512 0 0 1-.723-.724l1.954-1.15a.781.781 0 0 0 .022-.022l-6.952-.075a.512.512 0 1 1 0-1.023l6.968.075a.779.779 0 0 0-.037-.04l-1.957-1.283a.512.512 0 1 1 .725-.722l1.957 1.284c.325.326.499.746.52 1.172zm-8.678 4.753c.022-.426.195-.846.52-1.173l1.957-1.283a.512.512 0 1 1 .725.722l-1.957 1.284a.779.779 0 0 0-.036.039l6.967-.076a.512.512 0 1 1 0 1.024l-6.951.075a.78.78 0 0 0 .021.022l1.954 1.15a.512.512 0 0 1-.723.723l-1.954-1.149a1.784 1.784 0 0 1-.521-1.15.514.514 0 0 1-.002-.208z"/>
    </defs>
    <g fill="none" fill-rule="evenodd">
        <mask id="b" fill="#fff">
            <use xlink:href="#a"/>
        </mask>
        <use fill="#292F48" fill-rule="nonzero" xlink:href="#a"/>
        <g fill="#292f48" mask="url(#b)">
            <path d="M0 0h24v24H0z"/>
        </g>
    </g>
</svg>
